{"title":"When Marnie Was There 2014 BluRay x264 1080p DTS Red Blade","uid":13715216,"size":8219621942,"categoryP":"video","categoryS":"movies","magnet":"?xt=urn:btih:57c7c9d9a576c69d18d060a77e74aa88e2e18887&amp;dn=When+Marnie+Was+There+2014+BluRay+x264+1080p+DTS+Red+Blade&amp;tr=udp%3A%2F%2Ftracker.leechers-paradise.org%3A6969&amp;tr=udp%3A%2F%2Fzer0day.ch%3A1337&amp;tr=udp%3A%2F%2Fopen.demonii.com%3A1337&amp;tr=udp%3A%2F%2Ftracker.coppersurfer.tk%3A6969&amp;tr=udp%3A%2F%2Fexodus.desync.com%3A6969","seeders":1,"leechers":0,"uploader":"mglone","files":3,"time":1456902103,"description":"INFO\r\n\r\nFormat                      : Matroska\r\nFormat version              : Version 2\r\nFile size                   : 7.66 GiB\r\nDuration                    : 1h 42mn\r\nOverall bit rate            : 10.7 Mbps\r\nEncoded date                : UTC 2015-09-18 00:09:57\r\nWriting application         : mkvmerge v8.2.0 ('World of Adventure') 32bit\r\nWriting library             : libebml v1.3.1 + libmatroska v1.4.2\r\n\r\nVideo\r\nID                          : 1\r\nFormat                      : AVC\r\nFormat/Info                 : Advanced Video Codec\r\nFormat profile              :   \r\nFormat settings, CABAC      : Yes\r\nFormat settings, ReFrames   : 4 frames\r\nCodec ID                    : V_MPEG4/ISO/AVC\r\nDuration                    : 1h 42mn\r\nBit rate                    : 9 160 Kbps\r\nWidth                       : 1 920 pixels\r\nHeight                      : 1 040 pixels\r\nDisplay aspect ratio        : 1.85:1\r\nFrame rate mode             : Constant\r\nFrame rate                  : 23.976 (24000/1001) fps\r\nColor space                 : YUV\r\nChroma subsampling          : 4:2:0\r\nBit depth                   : 8 bits\r\nScan type                   : Progressive\r\nBits/(Pixel*Frame)          : 0.191\r\nStream size                 : 6.57 GiB (86%)\r\nWriting library             : x264 core 148 r2579 73ae2d1\r\nEncoding settings           : cabac=1 / ref=4 / deblock=1:0:0 / analyse=0x3:0x113 / me=umh / subme=7 / psy=1 / psy_rd=1.00:0.00 / mixed_ref=1 / me_range=16 / chroma_me=1 / trellis=1 / 8x8dct=1 / cqm=0 / deadzone=21,11 / fast_pskip=1 / chroma_qp_offset=-2 / threads=6 / lookahead_threads=1 / sliced_threads=0 / nr=0 / decimate=1 / interlaced=0 / bluray_compat=0 / constrained_intra=0 / bframes=3 / b_pyramid=2 / b_adapt=1 / b_bias=0 / direct=1 / weightb=0 / open_gop=0 / weightp=2 / keyint=240 / keyint_min=23 / scenecut=40 / intra_refresh=0 / rc_lookahead=40 / rc=2pass / mbtree=0 / bitrate=9160 / ratetol=1.0 / qcomp=0.60 / qpmin=10 / qpmax=51 / qpstep=4 / cplxblur=20.0 / qblur=0.5 / vbv_maxrate=62500 / vbv_bufsize=78125 / nal_hrd=none / filler=0 / ip_ratio=1.40 / pb_ratio=1.30 / aq=1:1.00\r\nLanguage                    : English\r\nDefault                     : Yes\r\nForced                      : No\r\n\r\nAudio\r\nID                          : 2\r\nFormat                      : DTS\r\nFormat/Info                 : Digital Theater Systems\r\nMode                        : 16\r\nFormat settings, Endianness : Big\r\nCodec ID                    : A_DTS\r\nDuration                    : 1h 42mn\r\nBit rate mode               : Constant\r\nBit rate                    : 1 509 Kbps\r\nChannel(s)                  : 5 channels\r\nChannel positions           : Front: L C R, Side: L R\r\nSampling rate               : 48.0 KHz\r\nFrame rate                  : 93.750 fps (512 spf)\r\nBit depth                   : 24 bits\r\nCompression mode            : Lossy\r\nStream size                 : 1.08 GiB (14%)\r\nLanguage                    : Japanese\r\nDefault                     : Yes\r\nForced                      : No\r\n\r\nText\r\nID                          : 3\r\nFormat                      : UTF-8\r\nCodec ID                    : S_TEXT/UTF8\r\nCodec ID/Info               : UTF-8 Plain Text\r\nDuration                    : 1h 42mn\r\nBit rate                    : 30 bps\r\nCount of elements           : 910\r\nStream size                 : 22.5 KiB (0%)\r\nLanguage                    : English\r\nDefault                     : Yes\r\nForced                      : Yes","torrent":{"xt":"urn:btih:57c7c9d9a576c69d18d060a77e74aa88e2e18887","amp;dn":"When+Marnie+Was+There+2014+BluRay+x264+1080p+DTS+Red+Blade","amp;tr":["udp%3A%2F%2Ftracker.leechers-paradise.org%3A6969","udp%3A%2F%2Fzer0day.ch%3A1337","udp%3A%2F%2Fopen.demonii.com%3A1337","udp%3A%2F%2Ftracker.coppersurfer.tk%3A6969","udp%3A%2F%2Fexodus.desync.com%3A6969"],"infoHash":"57c7c9d9a576c69d18d060a77e74aa88e2e18887","infoHashBuffer":{"type":"Buffer","data":[87,199,201,217,165,118,198,157,24,208,96,167,126,116,170,136,226,225,136,135]},"announce":[],"urlList":[]}}